<svg id="Capa_1" enable-background="new 0 0 512 512" height="512" viewBox="0 0 512 512" width="512" xmlns="http://www.w3.org/2000/svg"><path d="m512 401.318h-48.205v-90c0-26.968-21.464-49.005-48.205-49.954v-90.046c0-23.092-15.739-42.569-37.05-48.29v-15.288c10.597-8.338 29-26.086 29-48.817 0-30.1-32.276-51.474-35.956-53.813l-8.044-5.11-8.044 5.11c-3.68 2.338-35.956 23.713-35.956 53.813 0 22.731 18.403 40.479 29 48.817v13.578h-77.54v-13.578c10.597-8.338 29-26.086 29-48.817 0-30.1-32.276-51.474-35.956-53.813l-8.044-5.11-8.044 5.11c-3.68 2.339-35.956 23.713-35.956 53.813 0 22.731 18.402 40.479 29 48.817v13.578h-77.54v-13.578c10.598-8.338 29-26.086 29-48.817 0-30.1-32.276-51.474-35.956-53.813l-8.044-5.11-8.044 5.11c-3.68 2.338-35.956 23.713-35.956 53.813 0 22.731 18.402 40.479 29 48.817v15.289c-21.311 5.721-37.049 25.198-37.049 48.289v90.046c-26.741.95-48.206 22.986-48.206 49.954v90h-48.205v30h14.743l23.902 80.682h434.711l23.901-80.682h14.743zm-256.002-364.628c6.807 6.109 14.002 14.72 14.002 22.233 0 7.516-7.202 16.131-13.998 22.232-6.806-6.109-14.002-14.719-14.002-22.232 0-7.516 7.202-16.131 13.998-22.233zm-129.587 181.579c6.802 5.637 16.132 13.049 33.185 13.049 17.463 0 26.836-7.778 33.679-13.457 5.25-4.356 7.884-6.543 14.521-6.543 6.635 0 9.27 2.187 14.519 6.542 6.843 5.679 16.215 13.458 33.678 13.458s26.835-7.778 33.678-13.458c5.249-4.356 7.884-6.542 14.52-6.542 6.637 0 9.272 2.187 14.521 6.543 6.844 5.679 16.216 13.457 33.679 13.457 17.065 0 26.397-7.422 33.199-13.06v43.06h-259.179zm237.127-181.579c6.807 6.109 14.002 14.72 14.002 22.232 0 7.516-7.202 16.131-13.998 22.232-6.807-6.108-14.002-14.719-14.002-22.232 0-7.515 7.202-16.13 13.998-22.232zm-215.08 0c6.806 6.109 14.002 14.72 14.002 22.232 0 7.516-7.202 16.131-13.998 22.232-6.806-6.108-14.002-14.719-14.002-22.232 0-7.515 7.202-16.13 13.998-22.232zm-2.047 114.628h219.179c11.028 0 20 8.972 20 20v12.253c-8.434 2.727-14.125 7.425-18.679 11.204-5.249 4.356-7.884 6.543-14.521 6.543s-9.271-2.187-14.521-6.543c-6.844-5.679-16.216-13.457-33.68-13.457-17.463 0-26.835 7.778-33.678 13.457-5.249 4.356-7.884 6.543-14.52 6.543s-9.27-2.187-14.519-6.542c-6.843-5.68-16.215-13.458-33.678-13.458s-26.836 7.778-33.679 13.457c-5.25 4.356-7.884 6.543-14.521 6.543-6.636 0-9.271-2.187-14.519-6.542-4.552-3.778-10.239-8.472-18.666-11.2v-12.257c.002-11.028 8.974-20.001 20.002-20.001zm-48.206 140h315.59c11.028 0 20 8.972 20 20v23.063c-6.804-5.639-16.137-13.063-33.205-13.063-17.463 0-26.836 7.778-33.679 13.457-5.249 4.356-7.884 6.543-14.521 6.543s-9.271-2.187-14.521-6.543c-6.844-5.679-16.216-13.457-33.68-13.457-17.463 0-26.835 7.778-33.678 13.457-5.249 4.356-7.884 6.543-14.52 6.543s-9.27-2.187-14.519-6.542c-6.843-5.68-16.215-13.458-33.678-13.458s-26.836 7.778-33.679 13.457c-5.25 4.356-7.884 6.543-14.521 6.543-6.636 0-9.271-2.187-14.519-6.542-6.843-5.679-16.215-13.458-33.679-13.458-17.06 0-26.391 7.417-33.193 13.055v-23.055c.002-11.027 8.974-20 20.002-20zm-20 77.745c8.43-2.728 14.119-7.423 18.672-11.202 5.25-4.356 7.884-6.543 14.521-6.543s9.271 2.187 14.52 6.543c6.843 5.679 16.215 13.457 33.678 13.457s26.836-7.778 33.679-13.457c5.25-4.356 7.884-6.543 14.521-6.543 6.635 0 9.27 2.187 14.519 6.542 6.843 5.679 16.215 13.458 33.678 13.458s26.835-7.778 33.678-13.458c5.249-4.356 7.884-6.542 14.52-6.542 6.637 0 9.272 2.187 14.521 6.543 6.844 5.679 16.216 13.457 33.679 13.457s26.836-7.778 33.679-13.457c5.249-4.356 7.884-6.543 14.521-6.543 6.639 0 9.273 2.187 14.523 6.543 4.555 3.78 10.247 8.477 18.682 11.204v32.253h-355.591zm372.749 112.937h-389.907l-15.015-50.682h419.937z"/></svg>