<svg id="Capa_1" enable-background="new 0 0 512 512" height="512" viewBox="0 0 512 512" width="512" xmlns="http://www.w3.org/2000/svg"><path d="m256 31c-138.034 0-256 97.692-256 225 0 124.065 114.841 225 256 225 37.649 0 74.09-7.236 108.398-21.517l98.446 21.181c5.662 1.218 11.49-.934 15.01-5.473 3.534-4.559 4.142-10.74 1.562-15.899l-29.092-58.185c39.859-41.097 61.676-92.228 61.676-145.107 0-124.066-114.841-225-256-225zm165.75 356.157c-4.818 4.541-6.09 11.703-3.129 17.625l19.99 39.982-72.559-15.612c-3.074-.661-6.276-.34-9.158.918-31.804 13.888-65.75 20.93-100.894 20.93-124.617 0-226-87.477-226-195 0-111.164 105.123-195 226-195 124.617 0 226 87.477 226 195 0 47.964-21.397 94.544-60.25 131.157z"/><path d="m376 226c8.284 0 15-6.716 15-15s-6.716-15-15-15h-27.257l11.68-40.879c2.276-7.966-2.337-16.268-10.302-18.544-7.964-2.275-16.269 2.336-18.544 10.302l-14.035 49.121h-88.799l11.68-40.879c2.276-7.966-2.337-16.268-10.302-18.544-7.964-2.275-16.268 2.336-18.544 10.302l-14.035 49.121h-61.542c-8.284 0-15 6.716-15 15s6.716 15 15 15h52.971l-17.143 60h-35.828c-8.284 0-15 6.716-15 15s6.716 15 15 15h27.257l-11.68 40.879c-2.276 7.966 2.337 16.268 10.302 18.544 8.009 2.287 16.281-2.379 18.544-10.302l14.035-49.121h88.799l-11.68 40.879c-2.276 7.966 2.337 16.268 10.302 18.544 8.009 2.287 16.281-2.379 18.544-10.302l14.035-49.121h61.542c8.284 0 15-6.716 15-15s-6.716-15-15-15h-52.971l17.143-60zm-84.172 60h-88.8l17.143-60h88.8z"/></svg>